<?xml version="1.0" encoding="UTF-8"?>
<svg version="1.1" xmlns="http://www.w3.org/2000/svg" width="722" height="208">
<path d="M0 0 C16.17 0 32.34 0 49 0 C54.41805781 27.94577185 59.45663293 55.90082355 64 84 C65.38080438 78.67886953 66.54388135 73.37146322 67.48046875 67.953125 C67.75693557 66.38621933 68.03346838 64.8193253 68.31005859 63.25244141 C68.45304382 62.43656555 68.59602905 61.6206897 68.74334717 60.78009033 C71.19071555 46.83880112 73.7255938 32.91512873 76.4125061 19.01794434 C76.72053135 17.4242211 77.02715464 15.83022625 77.33236694 14.23596191 C77.75650112 12.02366876 78.18589944 9.81247064 78.6171875 7.6015625 C78.98239502 5.71945068 78.98239502 5.71945068 79.35498047 3.79931641 C80 1 80 1 81 0 C82.5348297 -0.09319449 84.07392082 -0.117458 85.61157227 -0.11352539 C86.59251358 -0.11344986 87.5734549 -0.11337433 88.5841217 -0.11329651 C89.6507756 -0.10813522 90.7174295 -0.10297394 91.81640625 -0.09765625 C93.44569313 -0.09553383 93.44569313 -0.09553383 95.1078949 -0.09336853 C98.59279075 -0.08775048 102.07762342 -0.07519492 105.5625 -0.0625 C107.91861887 -0.05748733 110.27473874 -0.05292402 112.63085938 -0.04882812 C118.42059464 -0.03777519 124.21029281 -0.02101951 130 0 C131.18397037 2.36794074 131.35832402 4.25605235 131.66430664 6.8894043 C131.78435562 7.90773849 131.9044046 8.92607269 132.02809143 9.9752655 C132.15417282 11.08042007 132.28025421 12.18557465 132.41015625 13.32421875 C132.54191757 14.45898148 132.67367889 15.5937442 132.80943298 16.76289368 C133.08780353 19.16943093 133.36424238 21.57619229 133.63891602 23.9831543 C134.05883839 27.65547836 134.48698942 31.3267766 134.91601562 34.99804688 C135.18539529 37.33588 135.45429106 39.67376895 135.72265625 42.01171875 C135.85076187 43.10675217 135.97886749 44.20178558 136.1108551 45.33000183 C136.70548363 50.59021668 137.15364446 55.70607921 137 61 C136.49251221 61.26627197 135.98502441 61.53254395 135.4621582 61.80688477 C133.07856631 63.05804839 130.69550793 64.3102245 128.3125 65.5625 C127.45213135 66.01415527 126.5917627 66.46581055 125.70532227 66.93115234 C119.55776441 70.16393465 113.4498048 73.45959837 107.37109375 76.8203125 C105 78 105 78 103 78 C102.01 69.585 102.01 69.585 101 61 C100.91105469 63.12115234 100.91105469 63.12115234 100.8203125 65.28515625 C100.08703961 72.72319907 99.17581762 79.9908012 93.53369141 85.33691406 C87.23030944 89.77274316 80.34709192 93.09910476 73.38769531 96.37451172 C68.39659186 98.76934934 63.62183388 101.51380518 58.8125 104.25 C44.91161674 112 44.91161674 112 40 112 C36.37 95.5 32.74 79 29 62 C27.38600064 74.60301931 27.38600064 74.60301931 26.18359375 87.2265625 C26.12220718 87.98875092 26.06082062 88.75093933 25.99757385 89.53622437 C25.80754606 91.89889875 25.62203411 94.26189074 25.4375 96.625 C25.24901415 99.02377889 25.0594192 101.4224485 24.86671448 103.82089233 C24.74840733 105.29434425 24.6324665 106.76798895 24.51939392 108.24185181 C24.20204743 112.20577248 23.71373444 116.08798837 23 120 C11.23352839 124.5379225 -0.81148646 127.80303998 -13 131 C-13.9926732 127.80057289 -13.99328705 125.28491336 -13.63345337 121.96572876 C-13.52688919 120.95078842 -13.42032501 119.93584808 -13.31053162 118.89015198 C-13.18694778 117.78251999 -13.06336395 116.674888 -12.93603516 115.53369141 C-12.81099106 114.36256302 -12.68594696 113.19143463 -12.55711365 111.9848175 C-12.21298562 108.77548815 -11.8625693 105.56692133 -11.5092473 102.35859346 C-11.1404961 98.99734836 -10.77949338 95.63527099 -10.41757202 92.27328491 C-9.80845595 86.62535885 -9.19411603 80.97802138 -8.57617188 75.33105469 C-7.78413402 68.09299736 -7.00014452 60.85409311 -6.21891212 53.61486244 C-5.54623487 47.3816401 -4.87042329 41.14875823 -4.19381285 34.91596174 C-4.04890435 33.58067178 -3.90410141 32.24537036 -3.75940371 30.91005754 C-3.28311375 26.51478518 -2.80370533 22.11986217 -2.32275391 17.72509766 C-2.20321854 16.62151413 -2.08368317 15.5179306 -1.96052551 14.38090515 C-1.84832169 13.36032516 -1.73611786 12.33974518 -1.62051392 11.28823853 C-1.52427042 10.40666895 -1.42802692 9.52509937 -1.32886696 8.61681557 C-0.96647895 5.73327083 -0.47778077 2.86668465 0 0 Z " fill="#000000" transform="translate(38,20)"/>
<path d="M0 0 C2.00710786 5.1653205 3.7298619 10.2944779 5.10961914 15.66479492 C5.29881927 16.38681595 5.48801941 17.10883698 5.68295288 17.85273743 C6.3042843 20.22764129 6.91967345 22.60404312 7.53515625 24.98046875 C7.97732188 26.67412486 8.41991218 28.36767015 8.86289978 30.06111145 C10.03153919 34.5323324 11.19538122 39.00478702 12.35791016 43.4776001 C14.1850699 50.50497929 16.01862115 57.53069386 17.85325241 64.55612564 C18.30740231 66.29562059 18.76126287 68.0351911 19.21483231 69.77483749 C21.74053637 79.45948612 24.29406596 89.13566927 26.91357422 98.79541016 C27.26559544 100.09355825 27.26559544 100.09355825 27.6247282 101.41793156 C28.74525514 105.54510248 29.87026161 109.67100213 31.00074768 113.79545593 C31.20346598 114.53860991 31.40618427 115.28176388 31.61504555 116.04743767 C31.99274687 117.43205615 32.37246415 118.81612689 32.75455284 120.19954109 C34 124.77433216 34 124.77433216 34 127 C20.47 127 6.94 127 -7 127 C-7.99 122.75125 -8.98 118.5025 -10 114.125 C-10.31324219 112.7858252 -10.62648438 111.44665039 -10.94921875 110.06689453 C-11.19285156 109.01614746 -11.43648438 107.96540039 -11.6875 106.8828125 C-11.93886719 105.80402832 -12.19023437 104.72524414 -12.44921875 103.61376953 C-13 101 -13 101 -13 99 C-25.87 99 -38.74 99 -52 99 C-52.66 102.63 -53.32 106.26 -54 110 C-55.32 115.61 -56.64 121.22 -58 127 C-71.2 127 -84.4 127 -98 127 C-96.77537688 120.8768844 -95.53643116 114.88607299 -93.94042969 108.87011719 C-93.74495041 108.12370972 -93.54947113 107.37730225 -93.34806824 106.60827637 C-92.70882757 104.17039085 -92.06542945 101.73362497 -91.421875 99.296875 C-90.96805533 97.57031105 -90.51446694 95.84368628 -90.06109619 94.11700439 C-89.11136483 90.50233477 -88.15972568 86.88817508 -87.20654297 83.27441406 C-86.00261138 78.70989743 -84.80208121 74.14449545 -83.6027298 69.5787735 C-81.33881468 60.96053096 -79.06565848 52.34480892 -76.7803421 43.73221588 C-75.53721177 39.04335786 -74.31073112 34.35053669 -73.09570312 29.65429688 C-72.56932927 27.64965583 -72.04266967 25.64508978 -71.515625 23.640625 C-71.2958197 22.77266296 -71.0760144 21.90470093 -70.84954834 21.01043701 C-69.8263134 17.16499742 -69.06819456 14.57341013 -66 12 C-63.38378906 11.03271484 -63.38378906 11.03271484 -60.265625 10.2109375 C-59.13382813 9.90929687 -58.00203125 9.60765625 -56.8359375 9.296875 C-55.65257812 8.99265625 -54.46921875 8.6884375 -53.25 8.375 C-52.08210938 8.06304687 -50.91421875 7.75109375 -49.7109375 7.4296875 C-44.15670117 5.96870924 -38.71390745 4.61817127 -33 4 C-35.84369958 25.17729375 -39.79515115 46.05843538 -44 67 C-36.41 67.33 -28.82 67.66 -21 68 C-21.54269531 65.33292969 -22.08539063 62.66585937 -22.64453125 59.91796875 C-23.18171563 57.26345975 -23.71750573 54.60867277 -24.25317383 51.95385742 C-24.6192394 50.14334281 -24.98669772 48.3331091 -25.35571289 46.52319336 C-27.32266827 36.8708898 -29.20230407 27.21581651 -30.76171875 17.48828125 C-30.8886763 16.70591599 -31.01563385 15.92355072 -31.1464386 15.11747742 C-31.72693082 11.38069535 -32.14868217 7.78365648 -32 4 C-21.51949132 1.06545757 -10.87856105 -0.35962185 0 0 Z " fill="#000000" transform="translate(295,61)"/>
<path d="M0 0 C7.5115521 0.63848193 14.9213134 2.35366251 22.25 4.0625 C23.37631836 4.32389771 23.37631836 4.32389771 24.52539062 4.59057617 C29.87240255 5.87240255 29.87240255 5.87240255 31 7 C30.99877013 16.22649626 28.74550378 25.53915955 27.04370117 34.57080078 C26.56236981 37.12569107 26.08817142 39.68182509 25.61523438 42.23828125 C25.30770416 43.89070182 24.99977501 45.54304821 24.69140625 47.1953125 C24.55174942 47.94555695 24.41209259 48.69580139 24.26820374 49.46878052 C23.28494096 54.67821612 22.15147388 59.81836754 21 65 C32.385 64.505 32.385 64.505 44 64 C43.52949219 61.71707031 43.05898438 59.43414062 42.57421875 57.08203125 C39.2363904 40.77667613 36.016198 24.5328236 34 8 C42.15681537 9.31955323 49.72914105 11.79904286 57.5 14.5625 C58.67820312 14.97435547 59.85640625 15.38621094 61.0703125 15.81054688 C69.63857384 18.81928692 69.63857384 18.81928692 72 20 C72.78535764 22.33972031 73.44731067 24.63014505 74.05957031 27.01635742 C74.25504959 27.75169708 74.45052887 28.48703674 74.65193176 29.24465942 C75.3016432 31.69631324 75.93981954 34.15082283 76.578125 36.60546875 C77.03098662 38.32272822 77.48459132 40.03979189 77.93890381 41.75666809 C79.14049277 46.30517457 80.33249818 50.856139 81.5223999 55.40771484 C82.71156732 59.95091096 83.90856147 64.49204104 85.10546875 69.03320312 C86.4897293 74.28554225 87.8734245 79.53801863 89.25158691 84.79196167 C91.8994582 94.8793613 94.580516 104.95525981 97.41412354 114.99247742 C98.27587969 118.08443444 99 120.77312101 99 124 C85.8 124 72.6 124 59 124 C57.56064826 120.40162065 56.53609886 117.41244486 55.7109375 113.69921875 C55.51290527 112.81838623 55.31487305 111.93755371 55.11083984 111.0300293 C54.8680127 109.92699463 54.62518555 108.82395996 54.375 107.6875 C53.59125 104.160625 52.8075 100.63375 52 97 C32.695 96.505 32.695 96.505 13 96 C12.67 98.64 12.34 101.28 12 104 C11.63972684 105.72685302 11.24700692 107.44756279 10.80859375 109.15625 C10.60806396 109.94837891 10.40753418 110.74050781 10.20092773 111.55664062 C9.94899658 112.52794922 9.69706543 113.49925781 9.4375 114.5 C8.633125 117.635 7.82875 120.77 7 124 C-6.2 124 -19.4 124 -33 124 C-28.40495295 104.47105003 -28.40495295 104.47105003 -26.51391602 97.38525391 C-26.29703125 96.56473038 -26.08014648 95.74420685 -25.85668945 94.89881897 C-25.15795311 92.25748066 -24.45597121 89.6170178 -23.75390625 86.9765625 C-23.25572708 85.09587026 -22.75776111 83.21512154 -22.25999451 81.33432007 C-20.96033438 76.42576448 -19.65792437 71.51794291 -18.3548584 66.61029053 C-17.04160981 61.66249346 -15.73082587 56.71404368 -14.41992188 51.765625 C-12.93763053 46.1705695 -11.45514884 40.57556564 -9.97059631 34.98110962 C-9.74491439 34.13033026 -9.51923246 33.2795509 -9.28671169 32.40299034 C-8.84455378 30.7367756 -8.40199594 29.07066694 -7.95900822 27.40467262 C-6.8217933 23.12277384 -5.69694285 18.83805432 -4.58883667 14.54852295 C-4.3601612 13.66720892 -4.13148573 12.78589489 -3.8958807 11.87787437 C-3.45829055 10.18947558 -3.02347626 8.50035427 -2.59179783 6.81043434 C-1.11180749 1.11180749 -1.11180749 1.11180749 0 0 Z " fill="#000000" transform="translate(365,64)"/>
<path d="M0 0 C11.941875 -0.061875 11.941875 -0.061875 24.125 -0.125 C27.84934326 -0.15231201 27.84934326 -0.15231201 31.64892578 -0.18017578 C53.09393024 -0.27278562 73.17978687 0.80170927 89.75 16.125 C100.60155731 27.51433361 102.61360732 41.05085863 102.3125 56.0703125 C101.81785108 66.92373421 97.32259981 77.56969159 89.68359375 85.36328125 C83.99875746 90.50062127 83.99875746 90.50062127 81 92 C81.495 95.465 81.495 95.465 82 99 C24.71304348 88.35652174 24.71304348 88.35652174 0 76 C0 50.92 0 25.84 0 0 Z M39 34 C39 46.54 39 59.08 39 72 C50.81475717 70.83290089 50.81475717 70.83290089 59.9375 64.25 C63.26979458 58.99911158 63.40933502 54.38998949 62.4375 48.4375 C61.16937777 43.57496509 58.88988934 40.1755955 55 37 C49.46429629 33.78608938 45.67842626 34 39 34 Z " fill="#000000" transform="translate(482,20)"/>
<path d="M0 0 C0.68795654 0.10916748 1.37591309 0.21833496 2.0847168 0.33081055 C8.14175165 1.41943496 12.5047879 3.35191516 18.5 5.75 C18.5 18.29 18.5 30.83 18.5 43.75 C14.39105448 42.9282109 11.45362781 41.97591425 7.6875 40.3125 C-0.81108596 36.73250958 -7.2901525 35.18068003 -16.5 36.75 C-17.49 36.894375 -18.48 37.03875 -19.5 37.1875 C-22.55363997 39.57315623 -22.97279247 42.21289967 -23.5234375 45.96484375 C-23.47113554 52.1800599 -20.44889987 56.65091609 -16.3203125 61.09765625 C-12.18966203 64.94457194 -7.81132975 68.27344435 -3.1875 71.5 C10.1561089 81.00140662 24.33180732 95.1484662 27.5 111.75 C22.77169513 111.62995895 18.04352706 111.50563909 13.31542969 111.37768555 C11.71357119 111.33489881 10.11168329 111.29319647 8.50976562 111.25268555 C3.89401276 111.13555648 -0.71975722 110.99267314 -5.33380127 110.82080078 C-7.39387533 110.75346862 -9.4522846 110.71921988 -11.51318359 110.68945312 C-19.08355808 110.43593361 -23.55990846 109.62072547 -28.875 104.125 C-29.45604492 103.57593994 -30.03708984 103.02687988 -30.63574219 102.46118164 C-31.77413064 101.38435779 -32.90175847 100.29600665 -34.01660156 99.19482422 C-35.84222298 97.41667617 -37.7812908 95.80437161 -39.75 94.1875 C-51.45693775 83.73130346 -61.56527563 71.00855319 -63.38671875 54.87890625 C-63.94783977 39.38035658 -61.35504064 26.19151683 -51.5 13.75 C-37.33067764 -0.44350209 -19.04531 -3.14052765 0 0 Z " fill="#000000" transform="translate(668.5,19.25)"/>
<path d="M0 0 C7.87186914 1.12455273 7.87186914 1.12455273 11.21826172 2.25585938 C11.97323944 2.50733231 12.72821716 2.75880524 13.506073 3.01789856 C14.70576218 3.42669502 14.70576218 3.42669502 15.9296875 3.84375 C17.69782212 4.43281968 19.46605537 5.02159337 21.234375 5.61010742 C22.61592773 6.07324844 22.61592773 6.07324844 24.02539062 6.54574585 C40.28266131 11.98984923 56.55793914 17.04754565 73.18310547 21.24609375 C74.44268066 21.5709375 75.70225586 21.89578125 77 22.23046875 C78.093125 22.50270264 79.18625 22.77493652 80.3125 23.05541992 C84.07970112 24.37948434 85.46745938 25.92200481 87.2339325 29.49778748 C87.63586319 30.4916597 88.03779388 31.48553192 88.4519043 32.50952148 C88.912155 33.63756699 89.3724057 34.76561249 89.84660339 35.92784119 C90.33421646 37.14661453 90.82182953 38.36538788 91.32421875 39.62109375 C91.83512488 40.88536839 92.34650996 42.14944958 92.85835266 43.41334534 C93.92819927 46.06013282 94.99253561 48.70905056 96.05297852 51.35961914 C97.41158113 54.75429412 98.78321543 58.1435187 100.15895367 61.53127956 C101.21665675 64.13977002 102.26765614 66.75092042 103.31662941 69.36293221 C104.06418876 71.22116191 104.81717669 73.07720474 105.57023621 74.93321228 C106.02103043 76.06440994 106.47182465 77.1956076 106.9362793 78.36108398 C107.53559517 79.85308571 107.53559517 79.85308571 108.14701843 81.37522888 C109 84 109 84 109 88 C95.8 88 82.6 88 69 88 C64.50035053 79.00070105 64.50035053 79.00070105 63.00463867 75.23071289 C62.6671611 74.38525406 62.32968353 73.53979523 61.98197937 72.66871643 C61.45529411 71.33416664 61.45529411 71.33416664 60.91796875 69.97265625 C60.54070145 69.02547226 60.16343414 68.07828827 59.7747345 67.10240173 C58.57569061 64.0904004 57.38136563 61.07655711 56.1875 58.0625 C55.00348042 55.08093005 53.81842568 52.09977602 52.63240051 49.1190033 C51.89853166 47.27380816 51.16588573 45.42812583 50.43486023 43.58180237 C47.03550184 35.01978467 43.5086741 26.52106567 40 18 C39.67 41.1 39.34 64.2 39 88 C26.13 88 13.26 88 0 88 C0 58.96 0 29.92 0 0 Z " fill="#000000" transform="translate(482,100)"/>
<path d="M0 0 C13.2 0 26.4 0 40 0 C40 17.87236795 37.51507675 28.00188072 25.6875 40.75 C12.69416776 52.99427096 -2.26993774 54.77865654 -19.34765625 54.32421875 C-29.30306022 53.8713288 -36.05250104 51.47374948 -45 47 C-45 33.8 -45 20.6 -45 7 C-36.09 10.96 -36.09 10.96 -27 15 C-15.34163186 17.65607613 -15.34163186 17.65607613 -4.5 14.125 C-0.95526468 10.20117035 -0.95526468 10.20117035 0 0 Z " fill="#000000" transform="translate(657,140)"/>
<path d="M0 0 C5.8078064 48.0741131 5.8078064 48.0741131 8.11730957 67.97348022 C8.28771082 69.43753049 8.45948166 70.90142206 8.63269043 72.36514282 C8.87101541 74.38229343 9.10361302 76.40011824 9.3359375 78.41796875 C9.46532715 79.52938232 9.5947168 80.6407959 9.72802734 81.78588867 C10.01520343 85.17967071 10 88.59408946 10 92 C-2.54 92 -15.08 92 -28 92 C-29.23782536 82.09739715 -30.41846647 72.25885064 -31.2890625 62.328125 C-31.39721283 61.11727234 -31.50536316 59.90641968 -31.61679077 58.65887451 C-31.84159177 56.13500859 -32.06502438 53.61102043 -32.28710938 51.08691406 C-32.62795255 47.21647231 -32.97382354 43.34650252 -33.3203125 39.4765625 C-33.53935564 37.01044269 -33.75811609 34.54429774 -33.9765625 32.078125 C-34.07965729 30.92403137 -34.18275208 29.76993774 -34.28897095 28.58087158 C-34.38261932 27.51165466 -34.4762677 26.44243774 -34.57275391 25.34082031 C-34.69694199 23.93428192 -34.69694199 23.93428192 -34.82363892 22.49932861 C-34.97618741 20.33746377 -35 18.16724033 -35 16 C-31.56424671 14.26734739 -28.12607421 12.53954662 -24.6875 10.8125 C-23.73037109 10.32974609 -22.77324219 9.84699219 -21.78710938 9.34960938 C-3.15063968 0 -3.15063968 0 0 0 Z " fill="#000000" transform="translate(177,95)"/>
<path d="M0 0 C14.52 0 29.04 0 44 0 C45.99847599 7.33114407 47.99388184 14.6629804 49.98144531 21.99707031 C50.65867166 24.49235395 51.33769877 26.98714958 52.01855469 29.48144531 C52.99626686 33.06448965 53.9675129 36.64923277 54.9375 40.234375 C55.24373291 41.35116638 55.54996582 42.46795776 55.86547852 43.61859131 C56.14576904 44.65936829 56.42605957 45.70014526 56.71484375 46.77246094 C56.96355225 47.68735291 57.21226074 48.60224487 57.46850586 49.54486084 C58 52 58 52 58 56 C50.17497561 54.46354135 42.78625919 52.02171022 35.25 49.4375 C32.86032234 48.62092031 30.46973046 47.80700992 28.078125 46.99609375 C27.03043945 46.63700928 25.98275391 46.2779248 24.90332031 45.90795898 C22.26973427 45.08435433 19.70772545 44.51021604 17 44 C15.69779925 43.64530562 14.40045655 43.27215341 13.109375 42.87890625 C12.40353271 42.66645264 11.69769043 42.45399902 10.97045898 42.23510742 C10.23770752 42.01314697 9.50495605 41.79118652 8.75 41.5625 C2.86848176 39.80301766 -2.97532784 38.20493443 -9 37 C-7.50654426 28.85537443 -5.48296833 20.87941061 -3.375 12.875 C-2.26125 8.62625 -1.1475 4.3775 0 0 Z " fill="#000000" transform="translate(376,20)"/>
<path d="M0 0 C-4.62 22.44 -9.24 44.88 -14 68 C-22.91 68 -31.82 68 -41 68 C-43.65824611 57.77597649 -46.02527863 47.51496029 -48.25 37.1875 C-48.52021973 35.94129883 -48.79043945 34.69509766 -49.06884766 33.41113281 C-49.31940918 32.23776367 -49.5699707 31.06439453 -49.828125 29.85546875 C-50.1669873 28.27221802 -50.1669873 28.27221802 -50.51269531 26.65698242 C-51 24 -51 24 -51 21 C-49.88109375 20.58492187 -48.7621875 20.16984375 -47.609375 19.7421875 C-35.38381109 15.08155608 -23.78544681 9.54935608 -12.20800781 3.48583984 C-11.05526367 2.89109863 -9.90251953 2.29635742 -8.71484375 1.68359375 C-7.68480225 1.14275146 -6.65476074 0.60190918 -5.59350586 0.04467773 C-3 -1 -3 -1 0 0 Z " fill="#000000" transform="translate(131,119)"/>
<path d="M0 0 C14.52 0 29.04 0 44 0 C45.155 4.41375 46.31 8.8275 47.5 13.375 C47.86544922 14.76638184 48.23089844 16.15776367 48.60742188 17.59130859 C48.89166016 18.68266113 49.17589844 19.77401367 49.46875 20.8984375 C49.76201172 22.01911621 50.05527344 23.13979492 50.35742188 24.29443359 C51 27 51 27 51 29 C50.32348389 29.05945801 49.64696777 29.11891602 48.94995117 29.18017578 C32.16001637 30.7115329 16.06478053 33.49172041 -0.32617188 37.40332031 C-3.54447272 38.12150213 -6.72653347 38.61653678 -10 39 C-7.04368511 25.88787396 -3.58506455 12.95511963 0 0 Z " fill="#000000" transform="translate(241,20)"/>
<path d="M0 0 C-0.11712764 3.12545854 -0.24370282 6.25012707 -0.375 9.375 C-0.42140625 10.65117187 -0.42140625 10.65117187 -0.46875 11.953125 C-0.86527042 21.07309469 -1.9831788 29.84860919 -3 39 C-15.21 39 -27.42 39 -40 39 C-39.01 29.1 -38.02 19.2 -37 9 C-23.375 5.625 -23.375 5.625 -19.11083984 4.57275391 C-17.98887207 4.29351074 -16.8669043 4.01426758 -15.7109375 3.7265625 C-14.56931152 3.44377441 -13.42768555 3.16098633 -12.25146484 2.86962891 C-10.06875738 2.28584726 -7.90539954 1.62476984 -5.76806641 0.89208984 C-3 0 -3 0 0 0 Z " fill="#000000" transform="translate(60,148)"/>
</svg>
